<svg class="svg-icon" style="width: 1em; height: 1em;vertical-align: middle;fill: currentColor;overflow: hidden;" viewBox="0 0 1024 1024" version="1.1" xmlns="http://www.w3.org/2000/svg"><path d="M638.691556 565.304889l23.779555-75.832889c19.000889-61.269333 37.262222-123.278222 53.873778-187.619556h3.185778c18.204444 63.544889 35.669333 126.350222 55.466666 187.619556l22.983111 75.832889h-159.288888z m134.712888-333.141333h-106.211555L473.884444 795.818667h93.525334l49.948444-160.824889h202.865778l49.152 160.824889h97.450667L773.404444 232.106667z"  /><path d="M375.921778 672.483556c-28.330667 39.025778-64.853333 60.529778-102.798222 60.529777-38.001778 0-74.524444-21.504-102.798223-60.529777-30.833778-42.439111-47.786667-99.441778-47.786666-160.483556 0-61.041778 16.952889-118.044444 47.786666-160.483556 28.330667-39.025778 64.853333-60.529778 102.798223-60.529777 38.001778 0 74.524444 21.504 102.798222 60.529777 30.833778 42.439111 47.786667 99.441778 47.786666 160.483556 0 61.041778-16.952889 118.044444-47.786666 160.483556m53.76-357.376C388.721778 258.616889 333.141333 227.555556 273.123556 227.555556 213.105778 227.555556 157.525333 258.616889 116.565333 315.107556 78.108444 368.071111 56.888889 437.987556 56.888889 512c0 73.955556 21.219556 143.928889 59.676444 196.892444C157.525333 765.383111 213.105778 796.444444 273.066667 796.444444c60.017778 0 115.598222-31.061333 156.558222-87.552C468.195556 655.928889 489.358222 586.012444 489.358222 512c0-73.955556-21.162667-143.928889-59.676444-196.892444"  /></svg>